<svg id="Capa_1" data-name="Capa 1" xmlns="http://www.w3.org/2000/svg" width="535.91" height="87.1" viewBox="0 0 535.91 87.1"><defs><style>.cls-1{fill:#fff;}</style></defs><path class="cls-1" d="M33.85.36-.31,75.18H20.44l4.82-13.1H40.77l-.84,13.1H60.68L58.38.36ZM41.5,47.41H30.6L43,15.66Z" transform="translate(0.31 1.11)"/><polygon class="cls-1" points="79.57 1.47 63.64 76.3 83.13 76.3 99.06 1.47 79.57 1.47"/><path class="cls-1" d="M135.94.36H105.45L89.52,75.18H109l6.39-30h5.14a5.53,5.53,0,0,1,3.77,1c.77.7,1.15,1.92,1.15,3.67a31.9,31.9,0,0,1-.84,6l-1,5c-.42,2-.77,3.84-1,5.66a34.41,34.41,0,0,0-.42,5.24,16,16,0,0,0,.31,3.35h20.75l.21-1a2.88,2.88,0,0,1-1.46-1.73,6.29,6.29,0,0,1-.42-1.94,24.49,24.49,0,0,1,.52-4.14c.35-1.85.66-3.48.94-4.87l1.37-6.4a33.44,33.44,0,0,0,.84-6.7,10.38,10.38,0,0,0-2.26-7.08q-2.25-2.56-7.28-3.2a17.63,17.63,0,0,0,10.85-5.55,21.48,21.48,0,0,0,5.18-10,43.61,43.61,0,0,0,1.16-8.28q0-6.7-4-10.32T135.94.36ZM131.86,24.3a10.12,10.12,0,0,1-3.15,5.35,9.28,9.28,0,0,1-6.6,2.36h-3.88L121.9,14.4h3.77q6.81,0,6.81,5.55A24.5,24.5,0,0,1,131.86,24.3Z" transform="translate(0.31 1.11)"/><path class="cls-1" d="M258.49,12.33c-5.75-3.68-15.74-8.44-25-4.79-14.11,5.56-27.36,21.21-27.36,21.21l-3.57-6L189.34,60.58l31.95-16.87c-22.44,27.16-53.82,28-56,23.25.54-4,2.12-9.21,5.91-15.7,9.56-16.37,18.5-21.74,18.5-21.74l2.69,7.42L210.8,2.1,172.94,15.31l6,3.57s-15.65,13.25-21.2,27.36c-3.66,9.27,1.1,19.26,4.79,25a19.84,19.84,0,0,0,3.55,4.84c20.33,18,60-16.37,68.91-53q1.65-1.07,3.48-2.13c6.49-3.79,11.73-5.37,15.7-5.91,6,2.74,3.11,51.69-49.9,70.91,38.71-5.69,78-48.65,59-70.1A20.18,20.18,0,0,0,258.49,12.33ZM222.88,41.71l-6.12-2.22s4.22-7,16.54-15.25A87.26,87.26,0,0,1,222.88,41.71Z" transform="translate(0.31 1.11)"/><path class="cls-1" d="M307.28,45.21Q304.87,56.16,303,59.8t-5.45,3.65c-2.94,0-4.4-1.89-4.4-5.66a46.24,46.24,0,0,1,.84-7.6q.82-4.77,3.3-16.45t4.66-16.67c1.47-3.32,3.63-5,6.5-5,2.58,0,3.88,1.55,3.88,4.65a18.06,18.06,0,0,1-.21,2.74q-.21,1.38-.63,3.69l-1,4.22h18.87l1.05-4.73a42.23,42.23,0,0,0,.83-7.57q0-7.89-4.76-12T311.26-1.11q-15.09,0-22.74,8.59T277.88,30.12q-3,14-3.72,19a61.49,61.49,0,0,0-.74,9q0,10,4.88,14.25t16.4,4.3a31.85,31.85,0,0,0,19-5.8q8.11-5.79,11.27-20.1l1.15-5.54Z" transform="translate(0.31 1.11)"/><polygon class="cls-1" points="361.35 1.47 341.86 1.47 325.93 76.3 369.42 76.3 372.77 60.37 348.77 60.37 361.35 1.47"/><polygon class="cls-1" points="389.14 1.47 373.21 76.3 392.7 76.3 408.63 1.47 389.14 1.47"/><polygon class="cls-1" points="459.05 1.47 441.55 45.8 443.11 1.47 415.23 1.47 399.3 76.3 417.54 76.3 429.59 20.54 428.12 76.3 442.17 76.3 464.59 20.54 452.75 76.3 470.99 76.3 486.92 1.47 459.05 1.47"/><path class="cls-1" d="M535.6,75.18,533.29.36H508.77L474.6,75.18h20.75l4.83-13.1h15.51l-.84,13.1ZM505.52,47.41l12.37-31.75-1.47,31.75Z" transform="translate(0.31 1.11)"/></svg>