<?xml version="1.0" encoding="utf-8"?>
<!-- Generator: Adobe Illustrator 24.1.0, SVG Export Plug-In . SVG Version: 6.00 Build 0)  -->
<svg version="1.1"
	 id="svg2" xmlns:cc="http://creativecommons.org/ns#" xmlns:dc="http://purl.org/dc/elements/1.1/" xmlns:rdf="http://www.w3.org/1999/02/22-rdf-syntax-ns#" xmlns:svg="http://www.w3.org/2000/svg"
	 xmlns="http://www.w3.org/2000/svg" xmlns:xlink="http://www.w3.org/1999/xlink" x="0px" y="0px" viewBox="0 0 146 147.2"
	 style="enable-background:new 0 0 146 147.2;" xml:space="preserve">
<style type="text/css">
	.st0{fill:#FEFEFE;}
	.st1{fill:url(#path3009_1_);}
</style>
<path id="path3007" class="st0" d="M74.3,132c-12.2,0-23.6-3.7-33.2-10L18,129.4l7.5-22.4C18.3,97.1,14,84.9,14,71.7
	c0-33.2,27-60.3,60.3-60.3s60.3,27,60.3,60.3C134.6,104.9,107.5,132,74.3,132L74.3,132L74.3,132z M74.3,0C34.8,0,2.7,32.1,2.7,71.7
	c0,13.5,3.8,26.2,10.3,37L0,147.2l39.7-12.7c10.3,5.7,22.1,8.9,34.7,8.9c39.6,0,71.7-32.1,71.7-71.7C146,32.1,113.9,0,74.3,0z"/>
<linearGradient id="path3009_1_" gradientUnits="userSpaceOnUse" x1="246.3508" y1="-480866.75" x2="246.3508" y2="-484268.75" gradientTransform="matrix(1.300000e-03 0 0 -1.300000e-03 -297.1601 -918.8065)">
	<stop  offset="0" style="stop-color:#6EBF61"/>
	<stop  offset="0.2314" style="stop-color:#50A557"/>
	<stop  offset="0.5216" style="stop-color:#2A904F"/>
	<stop  offset="0.8118" style="stop-color:#50A557"/>
	<stop  offset="1" style="stop-color:#6EBF63"/>
</linearGradient>
<path id="path3009" class="st1" d="M74.3,11.4c-33.2,0-60.3,27-60.3,60.3c0,13.2,4.3,25.4,11.5,35.3L18,129.4l23.2-7.4
	c9.5,6.3,20.9,10,33.2,10c33.2,0,60.3-27,60.3-60.3C134.6,38.4,107.6,11.4,74.3,11.4L74.3,11.4L74.3,11.4z"/>
<path id="path3011" class="st0" d="M57.5,42c-1.2-2.8-2.1-2.9-3.8-3c-0.6,0-1.3-0.1-2-0.1c-2.3,0-4.7,0.7-6.2,2.2
	c-1.8,1.8-6.2,6-6.2,14.7s6.3,17,7.2,18.2c0.9,1.2,12.3,19.2,30,26.5c13.9,5.7,18,5.2,21.1,4.5c4.6-1,10.4-4.4,11.8-8.5
	c1.5-4.1,1.5-7.6,1-8.4c-0.4-0.7-1.6-1.2-3.4-2.1c-1.8-0.9-10.4-5.1-12-5.7c-1.6-0.6-3.1-0.4-4.3,1.3c-1.7,2.4-3.4,4.8-4.7,6.2
	c-1.1,1.1-2.8,1.3-4.3,0.7c-1.9-0.8-7.4-2.7-14.1-8.7c-5.2-4.6-8.8-10.4-9.8-12.2c-1-1.8-0.1-2.8,0.7-3.8c0.9-1.1,1.7-1.9,2.6-2.9
	c0.9-1,1.4-1.6,1.9-2.8c0.6-1.2,0.2-2.4-0.2-3.3C62.5,54.2,59,45.5,57.5,42z"/>
</svg>
